# xmcd
#
# Track frame offsets:
#	150
#	9347
#	19110
#	30172
#	42070
#	50300
#	60445
#	68660
#	76997
#	88600
#	97375
#	108732
#	118432
#	129367
#
# Disc length: 1858 seconds
# Revision: 2
# Processed by: cddbd v1.5.2PL0 Copyright (c) Steve Scherf et al.
# Submitted via: dBpowerAMP V12.0
#
DISCID=ac07400e
DTITLE=Buck Owens - The Instrumental Hits Of Buck Owens And His Buckaroos [Sundazed SC 6049]
DYEAR=1995
DGENRE=Country
TTITLE0=Buckaroo
TTITLE1=Orange Blossom Special
TTITLE2=Raz-Ma-Taz Polka
TTITLE3=Faded Love
TTITLE4=Bud's Bounce
TTITLE5=Country Polka
TTITLE6=Bile 'Em Cabbage Down
TTITLE7=Steel Guitar Rag
TTITLE8=A Maiden's Prayer
TTITLE9=Buck's Polka
TTITLE10=Country Rag
TTITLE11=Mexican Polka
TTITLE12=Act Naturally*
TTITLE13=I've Got A Tiger By The Tail*
EXTD=
EXTT0=
EXTT1=
EXTT2=
EXTT3=
EXTT4=
EXTT5=
EXTT6=
EXTT7=
EXTT8=
EXTT9=
EXTT10=
EXTT11=
EXTT12=
EXTT13=
PLAYORDER=
